{"asset":{"generator":"T-FLEX CAD 17.0.85.0","version":"2.0"},"scene":0,"scenes":[{"nodes":[0]}],"cameras":[{"type":"orthographic","orthographic":{"xmag":1.1994810104370117,"ymag":1.1994810104370117,"zfar":5.399693965911865,"znear":3.599693775177002}}],"nodes":[{"children":[1]},{"children":[2],"translation":[0.0,0.0,0.0],"rotation":[0.0,0.0,0.0,1.0],"scale":[1.0,1.0,1.0]},{"children":[3,4]},{"mesh":0},{"mesh":1},{"camera":0,"translation":[1.8314082622528076,4.209304332733154,0.11427362263202667],"rotation":[-0.16130217909812927,-0.6843517422676086,-0.691778838634491,-0.1645793616771698]}],"meshes":[{"primitives":[{"attributes":{"POSITION":1,"NORMAL":2},"indices":0,"mode":4,"material":0}]},{"primitives":[{"attributes":{"POSITION":4},"indices":3,"mode":1,"material":1,"extras":{"flags":["BED"]}}]}],"accessors":[{"bufferView":0,"byteOffset":0,"componentType":5125,"count":84,"type":"SCALAR"},{"bufferView":1,"byteOffset":0,"componentType":5126,"count":48,"type":"VEC3","min":[-0.25,0.0,-0.5],"max":[0.25,0.4000000059604645,0.5]},{"bufferView":2,"byteOffset":0,"componentType":5126,"count":48,"type":"VEC3","min":[-1.0,-1.0,-1.0],"max":[1.0,1.0,1.0]},{"bufferView":3,"byteOffset":0,"componentType":5125,"count":48,"type":"SCALAR"},{"bufferView":4,"byteOffset":0,"componentType":5126,"count":48,"type":"VEC3","min":[-0.25,0.0,-0.5],"max":[0.25,0.4000000059604645,0.5]}],"bufferViews":[{"buffer":0,"byteOffset":0,"byteLength":336,"target":34963},{"buffer":1,"byteOffset":0,"byteLength":576,"target":34962},{"buffer":2,"byteOffset":0,"byteLength":576,"target":34962},{"buffer":3,"byteOffset":0,"byteLength":192,"target":34963},{"buffer":4,"byteOffset":0,"byteLength":576,"target":34962}],"buffers":[{"byteLength":336,"uri":"data:application/octet-stream;base64,"},{"byteLength":576,"uri":"data:application/octet-stream;base64,"},{"byteLength":576,"uri":"data:application/octet-stream;base64,"},{"byteLength":192,"uri":"data:application/octet-stream;base64,"},{"byteLength":576,"uri":"data:application/octet-stream;base64,"}],"materials":[{"pbrMetallicRoughness":{"baseColorFactor":[0.7686275243759155,0.7686275243759155,0.7686275243759155,1.0],"roughnessFactor":0.7999999970197678,"metallicFactor":0.20000000298023224}},{"pbrMetallicRoughness":{"baseColorFactor":[0.0,0.0,0.0,1.0],"roughnessFactor":0.7999999970197678,"metallicFactor":0.0}}],"extras":{"tflex":{}}}